<?xml version="1.0" encoding="utf-8"?>
<!-- Generator: Adobe Illustrator 19.0.1, SVG Export Plug-In . SVG Version: 6.00 Build 0)  -->
<svg version="1.1" id="Layer_1" xmlns="http://www.w3.org/2000/svg" xmlns:xlink="http://www.w3.org/1999/xlink" x="0px" y="0px"
	 viewBox="-122 1 248 548" style="enable-background:new -122 1 248 548;" xml:space="preserve">
<style type="text/css">
	.st0{fill:#0E499D;}
	.st1{fill:#D30529;}
	.st2{fill:#FFFFFF;}
</style>
<g>
	<path class="st0" d="M60.8,494.1c0.5-8,0.3-10.7-0.8-12c-0.8-1-1.4-4.1-1.4-7.6c0-5.3-0.8-7.3-7-19.5c-6.7-13-6.9-13.7-5.7-17
		c1.1-3.1,0.9-4.1-1.5-9.7c-2.4-5.6-3.5-6.8-10-11.1c-12.5-8.5-22.6-17.1-39.4-33.7c-18.7-18.6-34.3-39-48.7-63.9
		c-5-8.7-5.4-9-9.8-9c-3.3,0-7.3-2.9-7.3-5.3c0-0.7-4.1-9.6-9-19.9c-12.9-26.6-14-32.2-10.1-51.6c2.3-11.5,2.8-12.5,7.7-17.9
		c5.2-5.7,4.4-7.4-4.1-8.2c-11.3-1.1-11.2-1.1-13.6-8.3c-1.2-3.6-2.1-7.6-2.1-9c0-4.6,5.2-19,12.3-34.3c3.9-8.3,8.8-19.6,11-25.2
		c7.8-19.7,18.6-35.5,27.3-39.9c3.5-1.8,10.2-3.1,30.3-6c11.2-1.6,12-2.4,13.6-14c0.9-6.7,0.8-7.8-0.9-10.7c-1.3-2.1-2-5-2-8.3
		c0-4.7,0.3-5.3,3-6.7c2.7-1.4,3-2.1,3-6c0-9.4,1.9-14.6,7.2-19.8c1.5-1.4,2.8-2.8,3.7-3.8h-69.1c-23.5,0-42.5,19-42.5,42.5v433.6
		c0,23.5,19,42.5,42.5,42.5H63.9c-0.4-0.9-1.3-2.5-2.4-4C58.7,526.2,58.7,527.6,60.8,494.1z"/>
	<path class="st1" d="M66.6,15.7H30c0.4,0.4,0.9,0.9,1.5,1.3C36,20,42.9,27.1,44,30c1.6,4.3,1.3,10.1-1.1,16.3
		c-1.3,3.6-1.9,6.8-1.5,8.7c0.7,3.6-2.8,11.1-6.9,14.9c-1.5,1.4-3.6,4.3-4.7,6.4c-1.1,2.1-3.8,5.8-6,8.3c-2.2,2.4-3.9,5.2-3.7,6.1
		c0.2,0.9,2.8,3.1,5.9,4.7c3,1.6,7.6,4.9,10.1,7.1s7.6,6.3,11.3,8.9c13.3,9.4,19.7,25.5,19.8,49.8c0,10.8,5.3,36,9.1,43.5
		c5.2,10.2,7,15.8,8.6,26c2.1,13.1,2.1,13.2,6.3,15c4,1.7,14.3,10,14.3,11.6c0,0.5,1,2.4,2.3,4.2l1.4,1.9V58.2
		C109.1,34.7,90.1,15.7,66.6,15.7z M108.5,300.4c0,0.5-2.2,3.4-5,6.4c-19.1,20.9-51.8,16.2-63.8-9.1c-2.9-6.1-3.2-7.7-3.2-16.3
		c0-8.3,0.4-10.3,2.7-15.3c3.7-8,10.8-15.2,18.6-19.1c3.5-1.7,6.6-3.5,6.9-3.9c0.3-0.4-2.9-7.6-7.1-16c-9.6-19.4-10.7-22.8-15.1-46
		c-2-10.5-3.8-19.6-4-20.3c-0.8-2.2-3.6-1.4-10.6,3.3l-6.8,4.5L15,184.2c-3.4,8.6-6.2,16.9-6.2,18.5c0,1.8,1,3.8,2.6,5.3
		c4,3.8,5.1,6.5,12,30.4c5,17.6,6.2,22.7,5.4,24.5c-0.8,1.7-0.3,5.4,2,15.2c3.4,14.4,4.7,22,6.3,37.6c1.6,15.8,3.3,20.8,12.5,36.8
		c6.1,10.6,8,16.9,12.3,41.7c2,11.4,3.9,21.4,4.4,22.2s2.5,4,4.4,6.9c5.4,8.1,6.3,11.8,4.3,19.6c-0.9,3.6-1.9,8.9-2.2,11.9
		c-0.7,6,1.5,20.5,3.9,26.4c0.8,2,1.3,4.5,1,5.5c-0.3,1.1,0.9,6.4,2.6,11.8c5.3,17,5.1,24.2-1,31.9c-1.1,1.4-1.7,2.2-2,2.7
		c18.4-4.7,32-21.4,32-41.2V299.5C108.7,299.7,108.5,300,108.5,300.4z"/>
	<path class="st2" d="M-90,438.6h17.2l9.9,43.8h0.2v-43.8h14.4v71.1h-16.9l-10.2-43.9h-0.2v43.9H-90V438.6z"/>
	<path class="st2" d="M-40.9,438.6h23.2c11,0,16.1,7.1,16.1,17.7c0,7.6-2.7,14.3-9.3,15.9v0.2c7.8,0.9,10.9,8.9,10.9,16.2
		c0,12.4-5,21-17.8,21h-23.2V438.6z M-25.5,466.5h3.7c3.1,0,4.9-3.4,4.9-7.2c0-4-1.7-7.4-4.9-7.4h-3.7V466.5z M-25.5,496.4h4.3
		c2.8,0,5.5-3,5.5-8.8c0-5.5-2.6-8.6-5.5-8.6h-4.3V496.4z"/>
	<path class="st2" d="M15.4,438.6h19.3l14.4,71.1H32.8l-1.6-12.5H19l-1.6,12.5H1L15.4,438.6z M25.2,453.1H25l-4.2,30.2h8.6
		L25.2,453.1z"/>
</g>
</svg>
